<svg width="67" height="53" viewBox="0 0 67 53" fill="none" xmlns="http://www.w3.org/2000/svg">
<path d="M0 52H5.60612M67 52H61.3939M61.3939 52V3.37209C61.3939 3.37209 61.3939 1 59.0694 1C57.2098 1 52.0959 1 49.7714 1C47.4469 1 47.4469 3.37209 47.4469 3.37209C47.4469 3.37209 47.4469 36.5814 47.4469 52M61.3939 52H47.4469M47.4469 52H40.4735M40.4735 52V16.036C40.4735 16.036 40.4735 14.0465 38.149 14.0465C36.2894 14.0465 31.2075 14.0465 28.851 14.0465C26.4945 14.0465 26.4945 16.036 26.4945 16.036C26.4945 16.036 26.5052 40.5349 26.4945 52M40.4735 52H26.4945M26.4945 52H19.5531M19.5531 52V28.2791C19.5531 27.8837 19.5531 25.907 17.2286 25.907C15.369 25.907 10.2551 25.907 7.93061 25.907C5.60612 25.907 5.60612 27.5674 5.60612 29.4651C5.60612 31.3628 5.60612 45.2791 5.60612 52M19.5531 52H5.60612" stroke="white" stroke-width="2"/>
</svg>
